<?xml version="1.0" encoding="utf-8"?>
<!-- Generator: Adobe Illustrator 16.0.4, SVG Export Plug-In . SVG Version: 6.00 Build 0)  -->
<!DOCTYPE svg PUBLIC "-//W3C//DTD SVG 1.1//EN" "http://www.w3.org/Graphics/SVG/1.1/DTD/svg11.dtd">
<svg version="1.1" id="Layer_1" xmlns="http://www.w3.org/2000/svg" xmlns:xlink="http://www.w3.org/1999/xlink" x="0px" y="0px"
	 width="160px" height="65px" viewBox="0 0 160 65" enable-background="new 0 0 160 65" xml:space="preserve">
<g>
	<g>
		<path fill="#145F9E" d="M17.439,9.299c-4.34,1.185-8.746,1.185-13.151,0v49.978h13.151V9.299z"/>
		<path fill="#C2262E" d="M42.822,13.904c-4.8,1.512-9.601,1.512-14.335,0v45.372h14.335V13.904z"/>
		<path fill="#F89524" d="M67.02,9.299c-2.959,1.249-5.917,1.249-8.875,0v49.978h8.875V9.299z"/>
		<path fill="#6AA041" d="M56.433,5.617c-3.879,1.314-7.759,1.314-11.64,0v53.658h11.64V5.617z"/>
		<path fill="#ADADAD" d="M26.71,1.08c-2.564,0.854-5.063,0.854-7.629,0v58.196h7.629V1.08z"/>
	</g>
	<g>
		<g>
			<path d="M77.575,10.246v1.735h-2.168v7.028h-2.085v-7.028h-2.189v-1.735H77.575z"/>
			<path d="M80.227,10.246v3.164c0.349-0.678,0.935-1.018,1.751-1.018c0.434,0,0.805,0.096,1.115,0.286s0.529,0.437,0.654,0.735
				c0.129,0.3,0.188,0.738,0.188,1.315v4.281h-1.91v-3.655c0-0.438-0.018-0.736-0.051-0.899s-0.109-0.299-0.234-0.409
				c-0.121-0.107-0.27-0.163-0.455-0.163c-0.238,0-0.473,0.094-0.709,0.28c-0.232,0.187-0.349,0.584-0.349,1.191v3.655h-1.858
				v-8.765H80.227z"/>
			<path d="M91.338,16.092h-4.164c-0.006,0.116-0.006,0.216-0.006,0.302c0,0.46,0.119,0.808,0.367,1.042
				c0.244,0.235,0.537,0.352,0.879,0.352c0.633,0,1.018-0.339,1.146-1.018l1.734,0.129c-0.482,1.496-1.463,2.244-2.943,2.244
				c-0.645,0-1.191-0.128-1.645-0.388c-0.451-0.26-0.824-0.637-1.115-1.133c-0.293-0.496-0.439-1.091-0.439-1.784
				c0-1.03,0.293-1.862,0.881-2.496c0.586-0.633,1.344-0.95,2.266-0.95c0.832,0,1.547,0.295,2.143,0.883
				C91.039,13.865,91.338,14.805,91.338,16.092z M87.168,14.983h2.289c-0.061-0.892-0.426-1.337-1.092-1.337
				C87.648,13.646,87.252,14.092,87.168,14.983z"/>
		</g>
		<g>
			<path d="M76.862,35.923h6.945v3.474H72.69v-17.53h4.172V35.923z"/>
			<path d="M90.098,21.496v3.823h-3.824v-3.823H90.098z M90.098,26.429v12.968h-3.824V26.429H90.098z"/>
			<path d="M97.598,21.866v6.197c0.682-1.268,1.752-1.902,3.207-1.902c1.486,0,2.664,0.603,3.531,1.803
				c0.863,1.203,1.293,2.853,1.293,4.946c0,2.021-0.443,3.65-1.332,4.892c-0.893,1.24-2.174,1.861-3.852,1.861
				c-0.873,0-1.582-0.15-2.131-0.45c-0.547-0.297-1.098-0.9-1.654-1.806c-0.242,0.249-0.525,0.911-0.855,1.987h-2.031V21.866H97.598
				z M97.598,34.264c0,0.907,0.189,1.593,0.568,2.056c0.379,0.464,0.832,0.691,1.361,0.691c0.635,0,1.154-0.277,1.564-0.839
				c0.41-0.56,0.615-1.651,0.615-3.269c0-1.838-0.213-2.995-0.635-3.468c-0.422-0.469-0.904-0.705-1.441-0.705
				c-0.623,0-1.119,0.267-1.484,0.797c-0.367,0.529-0.549,1.284-0.549,2.259V34.264z"/>
			<path d="M112.34,39.396h-3.719V26.429h3.514v2.415c0.539-1.802,1.475-2.703,2.799-2.703c0.188,0,0.422,0.011,0.691,0.038v3.783
				c-0.777,0-1.383,0.121-1.814,0.361c-0.434,0.238-0.787,0.668-1.062,1.288c-0.273,0.62-0.41,1.458-0.41,2.51v5.275H112.34z"/>
			<path d="M129.602,39.396h-3.721c-0.123-0.513-0.184-1.189-0.184-2.027c-0.65,0.922-1.297,1.536-1.941,1.84
				c-0.646,0.304-1.377,0.455-2.197,0.455c-1.211,0-2.191-0.329-2.941-0.988c-0.746-0.658-1.123-1.543-1.123-2.654
				c0-0.813,0.221-1.562,0.654-2.245c0.438-0.686,1.137-1.223,2.104-1.61c0.963-0.39,2.725-0.677,5.281-0.867v-0.743
				c0-1.259-0.627-1.888-1.877-1.888c-1.336,0-2.082,0.633-2.232,1.893l-3.537-0.336c0.232-1.474,0.93-2.518,2.09-3.135
				c1.166-0.618,2.482-0.928,3.953-0.928c0.879,0,1.709,0.103,2.486,0.309c0.781,0.204,1.389,0.513,1.824,0.924
				c0.434,0.41,0.729,0.846,0.885,1.304c0.152,0.457,0.227,1.255,0.227,2.394v5.879C129.354,38.098,129.438,38.908,129.602,39.396z
				 M125.533,33.19c-2.672,0.266-4.008,1.071-4.008,2.422c0,0.453,0.143,0.845,0.424,1.172c0.279,0.329,0.682,0.494,1.205,0.494
				c0.674,0,1.238-0.28,1.693-0.839c0.459-0.562,0.686-1.25,0.686-2.069V33.19L125.533,33.19z"/>
			<path d="M136.24,39.396h-3.719V26.429h3.514v2.415c0.539-1.802,1.473-2.703,2.799-2.703c0.189,0,0.422,0.011,0.695,0.038v3.783
				c-0.779,0-1.385,0.121-1.818,0.361c-0.432,0.238-0.787,0.668-1.059,1.288c-0.275,0.62-0.412,1.458-0.412,2.51V39.396z"/>
			<path d="M152.754,26.429l-4.053,12.443c-0.453,1.387-0.838,2.389-1.164,3.011c-0.318,0.623-0.785,1.12-1.389,1.493
				s-1.447,0.561-2.527,0.561c-0.541,0-1.156-0.051-1.84-0.145v-2.938c0.678,0.109,1.303,0.162,1.879,0.162
				c0.756,0,1.262-0.141,1.52-0.424c0.256-0.283,0.451-0.684,0.578-1.198l-4.717-12.968h4.045l2.498,7.714l2.406-7.714h2.764V26.429
				z"/>
		</g>
		<g>
			<path d="M77.081,53.047v6.515H72.91V42.033h6.91c1.542,0,2.721,0.165,3.538,0.494c0.82,0.33,1.549,0.919,2.189,1.766
				c0.643,0.847,0.963,1.888,0.963,3.12c0,0.864-0.17,1.707-0.514,2.528c-0.342,0.822-0.826,1.466-1.451,1.938
				s-1.23,0.786-1.818,0.939c-0.586,0.153-1.504,0.229-2.755,0.229L77.081,53.047L77.081,53.047z M76.938,49.862h2.677
				c1.02,0,1.737-0.233,2.149-0.707c0.412-0.47,0.617-1.008,0.617-1.615c0-0.711-0.227-1.273-0.686-1.695
				c-0.461-0.419-1.158-0.627-2.093-0.627h-2.664V49.862z"/>
			<path d="M92.316,59.562H88.6V46.594h3.514v2.416c0.539-1.803,1.475-2.703,2.799-2.703c0.188,0,0.422,0.013,0.693,0.038v3.785
				c-0.779,0-1.385,0.118-1.816,0.356c-0.434,0.242-0.785,0.671-1.059,1.291c-0.273,0.621-0.414,1.456-0.414,2.51V59.562
				L92.316,59.562z"/>
			<path d="M103.104,46.328c1.977,0,3.514,0.647,4.619,1.938c1.109,1.293,1.66,2.911,1.66,4.852c0,1.918-0.574,3.513-1.725,4.793
				s-2.676,1.919-4.58,1.919c-1.846,0-3.322-0.633-4.428-1.898c-1.105-1.267-1.66-2.893-1.66-4.879c0-1.378,0.252-2.546,0.75-3.508
				c0.502-0.962,1.186-1.74,2.059-2.33C100.668,46.625,101.771,46.328,103.104,46.328z M103.205,48.834
				c-0.725,0-1.27,0.28-1.637,0.838c-0.365,0.561-0.551,1.673-0.551,3.337c0,1.529,0.176,2.625,0.527,3.291
				c0.35,0.666,0.893,1.002,1.635,1.002c0.65,0,1.172-0.283,1.574-0.854c0.4-0.566,0.602-1.65,0.602-3.247
				c0-1.697-0.178-2.852-0.531-3.457C104.471,49.139,103.93,48.834,103.205,48.834z"/>
			<path d="M115.732,46.594V58.87c0,0.685-0.01,1.313-0.025,1.884c-0.018,0.568-0.172,1.146-0.461,1.728
				c-0.293,0.581-0.754,1.025-1.387,1.328c-0.625,0.305-1.402,0.458-2.32,0.458c-0.521,0-1.223-0.072-2.094-0.218v-3.011
				c0.4,0.042,0.697,0.062,0.885,0.062c0.514,0,0.889-0.152,1.123-0.457s0.352-0.896,0.352-1.778V46.594H115.732z M115.732,41.685
				v3.863h-3.926v-3.863H115.732z"/>
			<path d="M130.502,53.727h-8.328c-0.01,0.229-0.014,0.431-0.014,0.601c0,0.92,0.244,1.617,0.736,2.086
				c0.488,0.469,1.076,0.704,1.76,0.704c1.273,0,2.035-0.679,2.291-2.035l3.473,0.258c-0.967,2.993-2.928,4.489-5.889,4.489
				c-1.289,0-2.387-0.259-3.287-0.777c-0.902-0.516-1.646-1.271-2.232-2.263c-0.586-0.995-0.879-2.183-0.879-3.57
				c0-2.062,0.588-3.726,1.764-4.992c1.176-1.265,2.684-1.899,4.533-1.899c1.666,0,3.096,0.588,4.287,1.766
				S130.502,51.149,130.502,53.727z M122.16,51.507h4.582c-0.121-1.782-0.848-2.673-2.182-2.673
				C123.129,48.834,122.33,49.725,122.16,51.507z"/>
			<path d="M144.342,54.702c-0.146,1.531-0.754,2.768-1.818,3.71c-1.064,0.945-2.439,1.415-4.127,1.415
				c-1.832,0-3.324-0.604-4.477-1.815c-1.15-1.21-1.725-2.83-1.725-4.858c0-2.027,0.588-3.672,1.766-4.934s2.75-1.893,4.719-1.893
				c1.582,0,2.891,0.475,3.934,1.424c1.039,0.953,1.613,2.14,1.729,3.568l-3.578,0.207c-0.119-1.562-0.795-2.343-2.023-2.343
				c-1.512,0-2.27,1.242-2.27,3.728c0,1.653,0.213,2.7,0.633,3.146c0.426,0.445,0.939,0.669,1.545,0.669
				c1.18,0,1.887-0.746,2.115-2.24L144.342,54.702z"/>
			<path d="M150.711,49.574v5.489c0,0.688,0.102,1.146,0.307,1.376c0.205,0.231,0.689,0.349,1.451,0.349
				c0.352,0,0.756-0.018,1.219-0.051v2.83c-1.115,0.187-1.912,0.283-2.402,0.283c-1.596,0-2.727-0.309-3.395-0.92
				c-0.67-0.612-1-1.718-1-3.319v-6.037h-2.059v-2.98h2.281l0.307-3.83l3.289-0.258v4.088l2.797,0.003v2.978H150.711z"/>
		</g>
	</g>
</g>
</svg>
